<svg xmlns="http://www.w3.org/2000/svg" viewBox="0 0 48 48">
  <defs>
    <style>.cls-1{fill:#FFFFFF;}</style>
  </defs>
  <title>Asset 45ldpi</title>
  <g id="Layer_2" data-name="Layer 2">
    <g id="layer_1-2" data-name="layer 1">
      <path class="cls-1" d="M7,42H1a1,1,0,0,1-1-1V1A1,1,0,0,1,1,0H31a1,1,0,0,1,1,1V5H30V2H2V40H7Z"/>
      <path class="cls-1" d="M39,48H9a1,1,0,0,1-1-1V17a1,1,0,0,1,.29-.71l10-10A1,1,0,0,1,19,6H39a1,1,0,0,1,1,1v5H38V8H19.41L10,17.41V46H38V40h2v7A1,1,0,0,1,39,48Z"/>
      <path class="cls-1" d="M19,18H9a1,1,0,0,1-.92-.62,1,1,0,0,1,.21-1.09l10-10a1,1,0,0,1,1.09-.21A1,1,0,0,1,20,7V17A1,1,0,0,1,19,18Zm-7.59-2H18V9.41Z"/>
      <path class="cls-1" d="M34,33a4,4,0,0,1-4-4h2a2,2,0,1,0,2-2,4,4,0,1,1,4-4H36a2,2,0,1,0-2,2,4,4,0,0,1,0,8Z"/>
      <rect class="cls-1" x="33" y="32" width="2" height="3"/>
      <rect class="cls-1" x="33" y="17" width="2" height="3"/>
      <rect class="cls-1" x="40" y="25" width="2" height="2"/>
      <rect class="cls-1" x="26" y="25" width="2" height="2"/>
      <path class="cls-1" d="M21,44a1,1,0,0,1-.34-.06A1,1,0,0,1,20,43V26a14,14,0,1,1,6.58,11.86l-4.81,5.78A1,1,0,0,1,21,44ZM34,14A12,12,0,0,0,22,26V40.24l3.63-4.35A1,1,0,0,1,27,35.72,12,12,0,1,0,34,14Z"/>
    </g>
  </g>
</svg>