<?xml version="1.0" encoding="UTF-8"?>
<svg xmlns="http://www.w3.org/2000/svg" xmlns:xlink="http://www.w3.org/1999/xlink" width="450px" height="60px" viewBox="0 0 452 118" version="1.1">
<g id="surface1">
<path style=" stroke:none;fill-rule:nonzero;fill:rgb(0%,0%,0%);fill-opacity:1;" d="M 61.527344 6.6875 C 55.824219 6.988281 50.847656 7.964844 48.222656 9.289062 C 45.945312 10.441406 44.792969 12.621094 45.621094 14.222656 C 46.621094 16.152344 48.320312 16.503906 50.722656 15.300781 C 54.097656 13.597656 59.152344 12.871094 66.152344 13.097656 C 71.558594 13.273438 76.507812 14.125 80.261719 15.5 C 81.636719 16.003906 82.835938 16.277344 83.710938 16.277344 C 84.863281 16.277344 85.164062 16.175781 85.9375 15.453125 C 87.039062 14.449219 87.3125 12.921875 86.6875 11.445312 C 86.363281 10.644531 86.039062 10.367188 84.664062 9.742188 C 81.210938 8.1875 76.132812 7.164062 69.90625 6.761719 C 66.078125 6.535156 64.628906 6.511719 61.527344 6.6875 Z M 61.527344 6.6875 "/>
<path style=" stroke:none;fill-rule:nonzero;fill:rgb(0%,0%,0%);fill-opacity:1;" d="M 99.417969 7.4375 C 95.515625 8.839844 93.089844 11.644531 92.566406 15.324219 C 91.492188 23.039062 98.667969 28.722656 105.996094 25.992188 C 107.898438 25.292969 110.273438 22.988281 111.199219 20.984375 C 111.847656 19.558594 111.925781 19.15625 111.925781 16.777344 C 111.925781 14.300781 111.875 14.074219 111.097656 12.570312 C 109.347656 9.191406 106.347656 7.238281 102.671875 7.085938 C 101.21875 7.011719 100.34375 7.113281 99.417969 7.4375 Z M 104.621094 8.140625 C 109.523438 9.414062 112.324219 14.5 110.898438 19.53125 C 109.796875 23.441406 105.496094 26.371094 101.46875 25.945312 C 98.570312 25.644531 95.492188 23.613281 94.265625 21.234375 C 93.464844 19.683594 92.964844 17.355469 93.167969 16.078125 C 93.589844 13.222656 94.96875 10.894531 97.09375 9.441406 C 99.34375 7.886719 101.96875 7.4375 104.621094 8.140625 Z M 104.621094 8.140625 "/>
<path style=" stroke:none;fill-rule:nonzero;fill:rgb(0%,0%,0%);fill-opacity:1;" d="M 100.195312 16.902344 C 99.96875 18.832031 100.167969 19.03125 102.296875 19.03125 C 104.695312 19.03125 104.796875 18.980469 104.796875 17.40625 C 104.796875 16.652344 104.722656 16.003906 104.597656 15.925781 C 104.496094 15.875 103.496094 15.75 102.394531 15.652344 L 100.371094 15.476562 Z M 103.421875 16.527344 C 103.945312 16.726562 104.070312 16.929688 103.996094 17.480469 C 103.921875 18.128906 103.871094 18.15625 102.546875 18.15625 L 101.167969 18.15625 L 101.09375 17.203125 C 101.019531 16.300781 101.019531 16.277344 101.894531 16.277344 C 102.371094 16.277344 103.070312 16.402344 103.421875 16.527344 Z M 103.421875 16.527344 "/>
<path style=" stroke:none;fill-rule:nonzero;fill:rgb(0%,0%,0%);fill-opacity:1;" d="M 27.3125 7.761719 C 24.660156 8.714844 22.734375 10.46875 21.558594 12.972656 C 20.960938 14.222656 20.882812 14.699219 20.882812 17.027344 C 20.882812 19.507812 20.933594 19.785156 21.683594 21.3125 C 22.660156 23.316406 24.460938 25.066406 26.460938 25.992188 C 27.738281 26.59375 28.1875 26.671875 30.539062 26.671875 C 33.039062 26.671875 33.238281 26.621094 34.839844 25.820312 C 38.117188 24.164062 40.042969 21.234375 40.21875 17.628906 C 40.34375 15.152344 39.917969 13.523438 38.566406 11.519531 C 36.164062 7.964844 31.289062 6.335938 27.3125 7.761719 Z M 32.765625 8.289062 C 34.515625 8.664062 36.765625 10.242188 37.839844 11.84375 C 41.042969 16.554688 39.367188 22.890625 34.316406 25.242188 C 33.066406 25.84375 32.5625 25.917969 30.386719 25.917969 C 28.011719 25.917969 27.8125 25.867188 26.3125 25.066406 C 23.410156 23.488281 21.734375 20.859375 21.558594 17.628906 C 21.382812 14.324219 22.683594 11.519531 25.285156 9.691406 C 27.511719 8.113281 29.914062 7.664062 32.765625 8.289062 Z M 32.765625 8.289062 "/>
<path style=" stroke:none;fill-rule:nonzero;fill:rgb(0%,0%,0%);fill-opacity:1;" d="M 28.886719 12.394531 C 26.960938 13.148438 25.761719 14.851562 25.761719 16.878906 C 25.761719 19.507812 27.789062 21.535156 30.363281 21.535156 C 31.789062 21.535156 32.488281 21.261719 33.613281 20.285156 C 34.839844 19.207031 35.441406 17.328125 35.039062 15.828125 C 34.289062 13.121094 31.363281 11.46875 28.886719 12.394531 Z M 32.390625 13.496094 C 34.964844 14.949219 34.890625 19.007812 32.265625 20.335938 C 30.539062 21.210938 28.261719 20.710938 27.210938 19.207031 C 26.460938 18.179688 26.335938 16.175781 26.9375 15.050781 C 28.011719 12.996094 30.339844 12.347656 32.390625 13.496094 Z M 32.390625 13.496094 "/>
<path style=" stroke:none;fill-rule:nonzero;fill:rgb(0%,0%,0%);fill-opacity:1;" d="M 29.261719 15.527344 C 27.6875 17.105469 30.039062 19.484375 31.789062 18.082031 C 32.488281 17.503906 32.539062 16.253906 31.890625 15.527344 C 31.289062 14.875 29.914062 14.875 29.261719 15.527344 Z M 31.464844 16.703125 C 31.539062 17.40625 31.4375 17.53125 30.886719 17.679688 C 30.164062 17.855469 29.511719 17.429688 29.511719 16.804688 C 29.511719 16.175781 30.0625 15.75 30.761719 15.828125 C 31.265625 15.875 31.414062 16.050781 31.464844 16.703125 Z M 31.464844 16.703125 "/>
<path style=" stroke:none;fill-rule:nonzero;fill:rgb(0%,0%,0%);fill-opacity:1;" d="M 60.125 20.183594 C 55.222656 20.835938 48.746094 23.289062 44.394531 26.09375 C 38.21875 30.074219 32.941406 36.0625 29.761719 42.671875 C 24.386719 53.917969 24.484375 67.089844 30.011719 78.132812 C 35.015625 88.097656 43.46875 95.3125 54.148438 98.742188 C 61.675781 101.171875 70.632812 101.171875 78.160156 98.742188 C 90.863281 94.660156 100.417969 85.21875 104.546875 72.648438 C 108.324219 61.152344 106.570312 47.957031 99.96875 38.066406 C 97.992188 35.085938 96.46875 33.257812 93.792969 30.726562 C 84.960938 22.335938 72.65625 18.480469 60.125 20.183594 Z M 70.90625 26.570312 C 73.78125 26.972656 77.734375 28.246094 80.6875 29.699219 C 90.664062 34.582031 97.492188 44 99.144531 55.167969 C 100.09375 61.605469 99.117188 68.140625 96.269531 74.101562 C 94.441406 77.933594 92.515625 80.660156 89.539062 83.640625 C 80.585938 92.632812 67.628906 95.761719 55.449219 91.878906 C 52.875 91.054688 48.019531 88.523438 45.746094 86.773438 C 43.144531 84.820312 39.816406 81.335938 38.117188 78.832031 C 35.566406 75.027344 33.515625 69.96875 32.738281 65.609375 C 32.265625 62.90625 32.3125 56.246094 32.839844 53.589844 C 34.441406 45.453125 39.167969 37.890625 45.746094 32.90625 C 49.597656 30 56.125 27.222656 60.652344 26.570312 C 62.777344 26.269531 68.832031 26.269531 70.90625 26.570312 Z M 70.90625 26.570312 "/>
<path style=" stroke:none;fill-rule:nonzero;fill:rgb(0%,0%,0%);fill-opacity:1;" d="M 60.351562 31.226562 C 60.050781 31.277344 59.5 31.703125 59.125 32.128906 L 58.449219 32.929688 L 58.625 37.214844 L 58.800781 41.496094 L 55.597656 41.644531 C 53.847656 41.746094 50.871094 41.820312 49.023438 41.820312 C 45.371094 41.820312 44.417969 42.097656 43.746094 43.375 C 43.320312 44.175781 43.417969 74.453125 43.84375 75.175781 C 44.019531 75.453125 44.542969 75.878906 45.046875 76.128906 C 45.796875 76.53125 46.820312 76.628906 52.222656 76.78125 L 58.527344 76.957031 L 58.476562 81.789062 C 58.402344 86.320312 58.425781 86.648438 58.925781 87.296875 C 60.078125 88.875 60.125 88.875 66.230469 88.925781 L 71.832031 88.976562 L 72.605469 88.175781 C 73.359375 87.421875 73.40625 87.246094 73.558594 84.945312 C 73.65625 83.617188 73.734375 81.238281 73.757812 79.683594 L 73.78125 76.878906 L 80.4375 76.878906 C 87.9375 76.878906 88.039062 76.855469 89.089844 75.027344 L 89.664062 74 L 89.589844 59.226562 C 89.488281 45 89.464844 44.425781 88.988281 43.546875 C 88.089844 41.921875 87.863281 41.871094 80.9375 41.847656 C 76.859375 41.820312 74.558594 41.695312 74.359375 41.519531 C 74.109375 41.320312 74.03125 40.191406 74.03125 36.960938 C 74.03125 30.828125 74.308594 31.027344 66.53125 31.078125 C 63.429688 31.101562 60.652344 31.179688 60.351562 31.226562 Z M 72.65625 32.203125 C 73.105469 32.554688 73.15625 32.957031 73.28125 37.511719 L 73.40625 42.445312 L 80.386719 42.621094 C 85.238281 42.746094 87.464844 42.898438 87.714844 43.097656 C 88.738281 43.972656 88.765625 44.125 88.8125 59.277344 C 88.839844 71.945312 88.789062 73.875 88.464844 74.527344 C 87.6875 76.003906 87.789062 76.003906 80.183594 76.128906 L 73.15625 76.253906 L 73.03125 81.4375 C 72.90625 86.195312 72.855469 86.671875 72.382812 87.324219 L 71.855469 88.023438 L 66.429688 88.097656 C 60.703125 88.175781 60.328125 88.097656 59.601562 86.996094 C 59.25 86.445312 59.203125 85.671875 59.25 81.386719 C 59.277344 78.507812 59.203125 76.378906 59.074219 76.277344 C 58.949219 76.203125 55.976562 76.078125 52.5 75.980469 C 46.121094 75.828125 44.945312 75.679688 44.519531 74.875 C 44.167969 74.199219 44.144531 44.273438 44.519531 43.597656 C 44.667969 43.296875 45.070312 42.949219 45.421875 42.824219 C 45.769531 42.671875 48.496094 42.570312 51.472656 42.546875 C 54.449219 42.546875 57.476562 42.445312 58.152344 42.371094 L 59.402344 42.195312 L 59.402344 37.539062 C 59.402344 34.007812 59.476562 32.78125 59.726562 32.480469 C 60.101562 32.027344 61.378906 31.929688 68.28125 31.855469 C 71.40625 31.828125 72.257812 31.902344 72.65625 32.203125 Z M 72.65625 32.203125 "/>
<path style=" stroke:none;fill-rule:nonzero;fill:rgb(0%,0%,0%);fill-opacity:1;" d="M 55.023438 53.964844 C 54.699219 54.816406 54.699219 63.859375 55.023438 64.359375 C 55.222656 64.683594 56.75 64.734375 66.203125 64.734375 L 77.160156 64.734375 L 77.359375 59.375 C 77.484375 56.445312 77.484375 53.941406 77.359375 53.839844 C 77.257812 53.742188 72.230469 53.589844 66.203125 53.492188 L 55.273438 53.316406 Z M 76.558594 59.101562 C 76.507812 61.65625 76.410156 63.808594 76.308594 63.910156 C 76.234375 64.007812 71.507812 64.007812 65.855469 63.933594 L 55.523438 63.78125 L 55.523438 54.34375 L 66.105469 54.390625 L 76.660156 54.46875 Z M 76.558594 59.101562 "/>
<path style=" stroke:none;fill-rule:nonzero;fill:rgb(0%,0%,0%);fill-opacity:1;" d="M 22.808594 29.625 C 20.382812 30.976562 16.15625 39.59375 14.507812 46.503906 C 13.457031 50.960938 13.582031 52.714844 15.03125 53.964844 C 15.65625 54.492188 16.058594 54.59375 17.28125 54.59375 C 18.632812 54.59375 18.859375 54.515625 19.707031 53.742188 L 20.632812 52.890625 L 20.558594 50.761719 C 20.410156 46.203125 22.535156 40.59375 26.410156 35.386719 C 27.9375 33.332031 28.136719 32.28125 27.261719 30.878906 C 26.410156 29.449219 24.234375 28.847656 22.808594 29.625 Z M 22.808594 29.625 "/>
<path style=" stroke:none;fill-rule:nonzero;fill:rgb(0%,0%,0%);fill-opacity:1;" d="M 105.773438 29.875 C 103.921875 31.128906 103.921875 32.53125 105.773438 34.308594 C 107.199219 35.660156 108.148438 37.4375 109.375 40.96875 C 110.296875 43.625 111.425781 48.65625 111.699219 51.335938 C 111.773438 52.238281 112.023438 53.214844 112.226562 53.539062 C 112.800781 54.46875 114.050781 55.09375 115.375 55.09375 C 116.902344 55.09375 117.902344 54.59375 118.300781 53.589844 C 118.703125 52.613281 118.503906 48.808594 117.925781 46.703125 C 116.226562 40.394531 112.074219 31.878906 109.773438 29.949219 C 108.75 29.074219 106.996094 29.050781 105.773438 29.875 Z M 105.773438 29.875 "/>
<path style=" stroke:none;fill-rule:nonzero;fill:rgb(0%,0%,0%);fill-opacity:1;" d="M 415.558594 31.429688 C 414.734375 31.652344 413.007812 32.328125 411.707031 32.957031 C 408.554688 34.484375 405.855469 37.085938 404.554688 39.867188 C 403.730469 41.59375 402.953125 44.675781 402.929688 46.328125 C 402.929688 46.855469 402.527344 47.203125 400.675781 48.332031 L 398.425781 49.710938 L 398.425781 52.589844 L 402.929688 52.589844 L 402.929688 73.601562 L 402.277344 74.101562 C 401.804688 74.476562 401.253906 74.625 400.402344 74.625 L 399.175781 74.625 L 399.175781 78.382812 L 419.183594 78.382812 L 419.183594 74.953125 L 418.261719 74.777344 C 417.734375 74.703125 416.710938 74.625 415.984375 74.625 C 415.207031 74.625 414.410156 74.476562 414.058594 74.226562 L 413.433594 73.824219 L 413.433594 52.589844 L 421.960938 52.589844 L 421.886719 50.261719 L 421.8125 47.957031 L 417.636719 47.882812 L 413.484375 47.832031 L 413.28125 45.878906 C 413.058594 43.324219 413.332031 38.492188 413.832031 36.238281 L 414.257812 34.433594 L 417.710938 38.039062 L 421.1875 41.644531 L 422.261719 41.296875 C 423.789062 40.792969 425.4375 39.566406 425.988281 38.566406 C 426.363281 37.890625 426.4375 37.363281 426.339844 36.210938 C 426.1875 34.234375 425.289062 32.929688 423.363281 31.953125 C 422.136719 31.328125 421.613281 31.226562 419.511719 31.152344 C 417.910156 31.101562 416.535156 31.203125 415.558594 31.429688 Z M 415.558594 31.429688 "/>
<path style=" stroke:none;fill-rule:nonzero;fill:rgb(0%,0%,0%);fill-opacity:1;" d="M 273.371094 31.804688 C 272.621094 32.078125 269.996094 32.90625 267.542969 33.683594 L 263.089844 35.109375 L 263.167969 36.636719 L 263.242188 38.191406 L 265.441406 38.265625 L 267.617188 38.339844 L 267.617188 56.070312 C 267.617188 76.355469 267.867188 74.402344 265.117188 74.851562 C 264.21875 75.003906 263.417969 75.128906 263.316406 75.128906 C 263.191406 75.128906 263.117188 75.855469 263.117188 76.753906 L 263.117188 78.382812 L 282.875 78.382812 L 282.875 75.152344 L 281.125 74.976562 C 279.972656 74.875 279.148438 74.652344 278.75 74.324219 L 278.125 73.851562 L 278.125 31.304688 L 276.449219 31.328125 C 275.496094 31.328125 274.144531 31.554688 273.371094 31.804688 Z M 273.371094 31.804688 "/>
<path style=" stroke:none;fill-rule:nonzero;fill:rgb(0%,0%,0%);fill-opacity:1;" d="M 173.726562 31.929688 C 170.175781 33.179688 169 38.113281 171.527344 41.070312 C 172.703125 42.445312 174.050781 43.074219 175.953125 43.074219 C 179.378906 43.074219 181.65625 40.742188 181.65625 37.1875 C 181.679688 33.105469 177.730469 30.5 173.726562 31.929688 Z M 173.726562 31.929688 "/>
<path style=" stroke:none;fill-rule:nonzero;fill:rgb(0%,0%,0%);fill-opacity:1;" d="M 306.960938 35.335938 C 296.132812 36.386719 288.078125 43.949219 286.601562 54.441406 C 286.226562 57.046875 286.601562 61.128906 287.402344 63.78125 C 290.078125 72.472656 297.507812 78.28125 306.960938 79.085938 C 311.738281 79.484375 317.867188 78.808594 322.644531 77.355469 L 324.394531 76.832031 L 324.394531 65.109375 L 318.492188 65.109375 L 317.691406 69.167969 C 316.691406 74.300781 316.765625 74.226562 313.3125 74.351562 C 309.1875 74.476562 306.636719 73.648438 304.035156 71.347656 C 300.507812 68.191406 298.808594 63.484375 298.832031 56.972656 C 298.855469 50.886719 300.234375 46.980469 303.507812 43.675781 C 306.335938 40.820312 308.710938 39.96875 313.289062 40.117188 C 316.789062 40.21875 316.789062 40.21875 317.765625 45.277344 L 318.492188 49.082031 L 324.394531 49.082031 L 324.394531 37.613281 L 322.46875 36.988281 C 319.417969 35.984375 317.214844 35.585938 313.464844 35.308594 C 309.6875 35.035156 309.914062 35.035156 306.960938 35.335938 Z M 306.960938 35.335938 "/>
<path style=" stroke:none;fill-rule:nonzero;fill:rgb(0%,0%,0%);fill-opacity:1;" d="M 124.980469 35.984375 C 124.878906 36.0625 124.804688 36.914062 124.804688 37.839844 L 124.804688 39.515625 L 127.007812 39.691406 C 128.382812 39.816406 129.332031 40.019531 129.632812 40.269531 C 130.03125 40.617188 130.058594 41.746094 130.058594 56.972656 L 130.058594 73.300781 L 129.433594 73.875 C 128.90625 74.375 128.433594 74.5 126.855469 74.625 L 124.929688 74.75 L 124.855469 76.554688 L 124.78125 78.382812 L 147.066406 78.382812 L 147.066406 74.675781 L 144.714844 74.578125 C 141.238281 74.425781 141.335938 74.578125 141.3125 68.214844 L 141.3125 63.183594 L 145.515625 63.03125 C 147.890625 62.957031 150.492188 62.730469 151.515625 62.507812 C 158.769531 60.929688 162.570312 56.621094 162.996094 49.585938 C 163.371094 42.847656 160.144531 38.515625 153.367188 36.789062 C 152.34375 36.535156 150.015625 36.210938 148.214844 36.0625 C 144.589844 35.785156 125.230469 35.710938 124.980469 35.984375 Z M 146.339844 40.695312 C 148.015625 41.269531 149.191406 42.371094 150.117188 44.273438 C 150.867188 45.800781 150.941406 46.179688 151.042969 48.734375 C 151.191406 53.714844 149.890625 56.496094 146.691406 57.921875 C 145.640625 58.398438 141.960938 58.976562 141.5625 58.722656 C 141.414062 58.625 141.3125 55.019531 141.3125 49.433594 L 141.3125 40.316406 L 143.261719 40.316406 C 144.363281 40.316406 145.714844 40.492188 146.339844 40.695312 Z M 146.339844 40.695312 "/>
<path style=" stroke:none;fill-rule:nonzero;fill:rgb(0%,0%,0%);fill-opacity:1;" d="M 430.691406 40.871094 C 430.140625 41.871094 429.265625 43.5 428.765625 44.476562 C 427.863281 46.226562 427.765625 46.328125 425.136719 47.957031 L 422.4375 49.632812 L 422.4375 52.589844 L 426.9375 52.589844 L 426.9375 62.605469 C 426.9375 68.992188 427.039062 73.074219 427.214844 73.925781 C 427.613281 75.804688 429.265625 77.40625 431.566406 78.105469 C 434.71875 79.085938 439.59375 78.632812 444.695312 76.929688 L 446.824219 76.203125 L 446.898438 74.425781 L 446.972656 72.625 L 444.648438 72.796875 C 440.546875 73.046875 438.34375 72.222656 437.742188 70.167969 C 437.542969 69.492188 437.445312 66.511719 437.445312 60.878906 L 437.445312 52.589844 L 446.949219 52.589844 L 446.949219 47.832031 L 437.445312 47.832031 L 437.445312 39.066406 L 431.714844 39.066406 Z M 430.691406 40.871094 "/>
<path style=" stroke:none;fill-rule:nonzero;fill:rgb(0%,0%,0%);fill-opacity:1;" d="M 240.730469 46.355469 C 235.429688 47.105469 230.753906 50.335938 228.5 54.792969 C 226.375 59.023438 226.273438 65.484375 228.300781 70.117188 C 229.453125 72.75 232.152344 75.503906 235.054688 76.980469 C 237.628906 78.28125 239.832031 78.707031 244.109375 78.734375 C 249.359375 78.757812 253.4375 77.957031 257.589844 76.105469 L 259.363281 75.300781 L 259.363281 72.449219 C 259.363281 70.242188 259.289062 69.59375 259.066406 69.691406 C 258.890625 69.769531 257.839844 70.242188 256.714844 70.71875 C 251.484375 73.046875 245.808594 73.5 242.605469 71.847656 C 241.480469 71.269531 239.980469 69.792969 239.230469 68.515625 C 238.554688 67.363281 237.855469 64.910156 237.855469 63.683594 L 237.855469 62.855469 L 248.683594 62.804688 L 259.488281 62.730469 L 259.441406 60.527344 C 259.191406 50.484375 251.660156 44.800781 240.730469 46.355469 Z M 245.609375 50.8125 C 246.835938 51.460938 247.785156 53.414062 248.136719 56.046875 C 248.285156 57.171875 248.335938 58.273438 248.261719 58.472656 C 248.160156 58.800781 247.308594 58.851562 243.082031 58.851562 L 238.03125 58.851562 L 238.15625 56.769531 C 238.429688 52.515625 240.179688 50.335938 243.359375 50.335938 C 244.234375 50.335938 245.058594 50.511719 245.609375 50.8125 Z M 245.609375 50.8125 "/>
<path style=" stroke:none;fill-rule:nonzero;fill:rgb(0%,0%,0%);fill-opacity:1;" d="M 171.902344 48.15625 L 166.574219 49.960938 L 166.574219 53.089844 L 170.574219 53.089844 L 170.574219 63.582031 C 170.574219 72.847656 170.527344 74.101562 170.175781 74.402344 C 169.949219 74.578125 168.976562 74.777344 168 74.851562 L 166.199219 75.003906 L 166.125 76.679688 L 166.046875 78.382812 L 185.855469 78.382812 L 185.78125 76.679688 L 185.707031 75.003906 L 183.90625 74.851562 C 180.804688 74.625 181.082031 76.027344 181.082031 60.050781 L 181.082031 46.328125 L 179.152344 46.355469 C 177.429688 46.378906 176.578125 46.578125 171.902344 48.15625 Z M 171.902344 48.15625 "/>
<path style=" stroke:none;fill-rule:nonzero;fill:rgb(0%,0%,0%);fill-opacity:1;" d="M 334.097656 48.15625 L 328.394531 49.933594 L 328.394531 53.089844 L 333.148438 53.089844 L 333.148438 63.582031 C 333.148438 72.773438 333.097656 74.101562 332.746094 74.402344 C 332.546875 74.578125 331.621094 74.777344 330.695312 74.851562 L 329.019531 75.003906 L 328.945312 76.679688 L 328.871094 78.382812 L 349.15625 78.382812 L 349.15625 74.925781 L 346.929688 74.828125 C 343.375 74.703125 343.652344 75.527344 343.652344 64.660156 L 343.652344 55.519531 L 345.476562 55.644531 C 348.230469 55.820312 350.03125 56.972656 350.878906 59.074219 L 351.207031 59.851562 L 355.78125 59.851562 L 356.683594 53.714844 L 357.582031 47.582031 L 356.484375 47.054688 C 355.683594 46.652344 354.882812 46.527344 353.507812 46.503906 C 351.65625 46.503906 351.628906 46.503906 349.554688 47.90625 C 348.429688 48.683594 346.503906 50.261719 345.277344 51.386719 L 343.078125 53.441406 L 343.226562 52.089844 C 343.328125 51.335938 343.453125 49.734375 343.550781 48.507812 L 343.703125 46.328125 L 341.75 46.355469 C 340.027344 46.355469 339.050781 46.578125 334.097656 48.15625 Z M 334.097656 48.15625 "/>
<path style=" stroke:none;fill-rule:nonzero;fill:rgb(0%,0%,0%);fill-opacity:1;" d="M 373.789062 46.503906 C 370.015625 47.078125 365.960938 48.605469 364.011719 50.210938 C 362.210938 51.6875 361.386719 54.21875 362.285156 55.519531 C 362.886719 56.371094 364.1875 56.597656 368.863281 56.597656 L 373.164062 56.597656 L 373.164062 50.085938 L 374.664062 50.085938 C 378.816406 50.085938 381.167969 52.3125 381.167969 56.269531 C 381.167969 57.949219 381.117188 58.097656 380.617188 58.222656 C 372.613281 59.976562 367.8125 61.277344 365.738281 62.230469 C 363.960938 63.03125 362.160156 64.785156 361.285156 66.539062 C 360.632812 67.839844 360.558594 68.265625 360.535156 70.371094 C 360.535156 72.421875 360.632812 72.949219 361.183594 74.152344 C 362.035156 75.953125 363.585938 77.507812 365.386719 78.359375 C 366.664062 78.933594 367.0625 79.007812 369.664062 78.984375 C 372.265625 78.984375 372.738281 78.910156 374.640625 78.183594 C 376.566406 77.457031 377.691406 76.878906 380.191406 75.402344 L 381.117188 74.851562 L 381.542969 76.628906 L 381.96875 78.382812 L 395.925781 78.382812 L 395.925781 75.152344 L 394.175781 74.976562 C 393.222656 74.902344 392.324219 74.675781 392.199219 74.527344 C 392.074219 74.375 391.921875 69.84375 391.847656 64.484375 C 391.75 56.320312 391.648438 54.492188 391.296875 53.367188 C 390.324219 50.234375 388.421875 48.433594 384.769531 47.179688 C 382.96875 46.554688 382.417969 46.480469 378.667969 46.429688 C 376.390625 46.402344 374.214844 46.429688 373.789062 46.503906 Z M 381.167969 67.089844 L 381.167969 71.796875 L 379.542969 72.347656 C 376.640625 73.273438 374.289062 72.972656 372.863281 71.472656 C 370.414062 68.839844 371.890625 64.734375 375.792969 63.433594 C 377.34375 62.90625 379.566406 62.40625 380.492188 62.378906 L 381.167969 62.355469 Z M 381.167969 67.089844 "/>
<path style=" stroke:none;fill-rule:nonzero;fill:rgb(0%,0%,0%);fill-opacity:1;" d="M 187.632812 48.882812 L 187.707031 50.710938 L 189.410156 50.785156 L 191.109375 50.859375 L 195.460938 56.722656 C 197.863281 59.953125 199.988281 62.855469 200.214844 63.207031 C 200.613281 63.808594 200.589844 63.859375 196.210938 69.042969 C 193.136719 72.671875 191.609375 74.300781 191.132812 74.425781 C 190.757812 74.5 189.808594 74.726562 189.035156 74.875 L 187.582031 75.152344 L 187.582031 78.382812 L 200.589844 78.382812 L 200.589844 76.78125 C 200.589844 75.078125 200.4375 74.902344 198.914062 74.875 C 198.585938 74.875 198.335938 74.75 198.335938 74.601562 C 198.335938 74.226562 203.664062 66.863281 203.890625 66.9375 C 204.316406 67.0625 209.367188 74.425781 209.269531 74.726562 C 209.191406 74.925781 208.71875 75.203125 208.242188 75.378906 C 207.367188 75.652344 207.339844 75.679688 207.339844 77.03125 L 207.339844 78.382812 L 224.097656 78.382812 L 224.097656 75.175781 L 222.472656 74.851562 L 220.871094 74.550781 L 216.09375 67.964844 C 213.46875 64.335938 211.269531 61.203125 211.195312 61.003906 C 211.09375 60.753906 212.46875 58.898438 215.09375 55.746094 L 219.148438 50.859375 L 220.949219 50.785156 L 222.722656 50.710938 L 222.722656 47.203125 L 216.644531 47.128906 L 210.566406 47.078125 L 210.644531 48.757812 L 210.71875 50.460938 L 211.917969 50.710938 L 213.121094 50.960938 L 210.566406 54.542969 C 209.140625 56.546875 207.941406 58.046875 207.816406 57.921875 C 207.691406 57.796875 206.542969 56.246094 205.242188 54.46875 C 203.289062 51.835938 202.914062 51.1875 203.113281 50.785156 C 203.238281 50.535156 203.566406 50.335938 203.839844 50.335938 C 204.914062 50.335938 205.089844 50.085938 205.089844 48.558594 L 205.089844 47.078125 L 187.558594 47.078125 Z M 187.632812 48.882812 "/>
<path style=" stroke:none;fill-rule:nonzero;fill:rgb(0%,0%,0%);fill-opacity:1;" d="M 15.605469 65.085938 C 13.90625 66.113281 13.632812 68.464844 14.632812 73.425781 C 16.058594 80.660156 19.632812 88.601562 22.210938 90.253906 C 25.761719 92.558594 29.511719 89.402344 26.988281 86.246094 C 24.761719 83.492188 20.507812 71.445312 20.507812 67.863281 C 20.507812 66.964844 20.359375 66.585938 19.734375 65.910156 C 18.433594 64.535156 16.984375 64.234375 15.605469 65.085938 Z M 15.605469 65.085938 "/>
<path style=" stroke:none;fill-rule:nonzero;fill:rgb(0%,0%,0%);fill-opacity:1;" d="M 113.125 65.585938 C 111.824219 66.414062 111.5 67.140625 111.375 69.566406 C 111.25 72.070312 110.574219 75.226562 109.625 77.757812 C 108.699219 80.234375 108.222656 81.136719 106.148438 84.417969 C 104.222656 87.449219 104.046875 88.050781 104.644531 89.5 C 105.398438 91.304688 107.496094 91.957031 109.222656 90.902344 C 112.449219 88.949219 117.300781 77.355469 117.925781 70.195312 C 118.128906 67.863281 117.878906 66.738281 116.925781 65.863281 C 116.050781 65.058594 114.199219 64.910156 113.125 65.585938 Z M 113.125 65.585938 "/>
<path style=" stroke:none;fill-rule:nonzero;fill:rgb(0%,0%,0%);fill-opacity:1;" d="M 100.292969 92.53125 C 97.367188 93.359375 95.21875 95.160156 93.714844 98.042969 C 92.941406 99.46875 92.917969 99.667969 92.917969 102.421875 C 92.917969 105.101562 92.964844 105.402344 93.640625 106.679688 C 95.191406 109.636719 97.269531 111.414062 100.21875 112.214844 C 102.394531 112.816406 103.597656 112.816406 105.695312 112.164062 C 112.550781 110.035156 115.199219 102.171875 111.050781 96.339844 C 110.023438 94.910156 108.199219 93.535156 106.347656 92.808594 C 104.769531 92.207031 101.96875 92.082031 100.292969 92.53125 Z M 106.445312 93.683594 C 108.347656 94.410156 110.347656 96.3125 111.347656 98.367188 C 112.097656 99.894531 112.175781 100.21875 112.175781 102.421875 C 112.175781 104.476562 112.074219 105.003906 111.5 106.230469 C 108.796875 112.039062 101.417969 113.667969 96.769531 109.511719 C 94.566406 107.507812 93.542969 105.253906 93.542969 102.398438 C 93.542969 99.996094 94.339844 97.890625 95.941406 96.1875 C 98.742188 93.132812 102.570312 92.230469 106.445312 93.683594 Z M 106.445312 93.683594 "/>
<path style=" stroke:none;fill-rule:nonzero;fill:rgb(0%,0%,0%);fill-opacity:1;" d="M 101.167969 98.265625 C 100.246094 98.667969 99.117188 99.945312 98.894531 100.820312 C 98.59375 102.023438 98.945312 103.875 99.644531 104.800781 C 101.46875 107.183594 104.722656 107.308594 106.445312 105.027344 C 107.074219 104.226562 107.171875 103.851562 107.171875 102.546875 C 107.171875 101.246094 107.046875 100.847656 106.445312 99.96875 C 105.246094 98.214844 102.96875 97.492188 101.167969 98.265625 Z M 104.546875 99.21875 C 106.347656 100.46875 106.972656 102.324219 106.148438 104.050781 C 105.347656 105.777344 103.445312 106.378906 101.644531 105.527344 C 99.144531 104.328125 98.820312 100.546875 101.121094 99.167969 C 102.195312 98.515625 103.519531 98.542969 104.546875 99.21875 Z M 104.546875 99.21875 "/>
<path style=" stroke:none;fill-rule:nonzero;fill:rgb(0%,0%,0%);fill-opacity:1;" d="M 102.371094 100.921875 C 101.644531 101.222656 101.246094 102.023438 101.445312 102.800781 C 101.871094 104.503906 104.546875 104.175781 104.546875 102.398438 C 104.546875 101.648438 104.320312 101.320312 103.621094 100.945312 C 102.996094 100.621094 103.09375 100.644531 102.371094 100.921875 Z M 103.546875 101.796875 C 104.222656 102.625 103.121094 103.652344 102.34375 102.875 C 101.945312 102.472656 101.96875 102.296875 102.445312 101.824219 C 102.921875 101.320312 103.144531 101.320312 103.546875 101.796875 Z M 103.546875 101.796875 "/>
<path style=" stroke:none;fill-rule:nonzero;fill:rgb(0%,0%,0%);fill-opacity:1;" d="M 27.738281 93.734375 C 25.136719 94.484375 22.761719 96.539062 21.558594 99.117188 C 20.960938 100.371094 20.882812 100.847656 20.882812 103.175781 C 20.882812 105.628906 20.933594 105.90625 21.683594 107.308594 C 23.136719 110.136719 25.761719 112.066406 28.9375 112.664062 C 32.839844 113.417969 37.390625 110.914062 39.191406 107.054688 C 39.816406 105.730469 39.894531 105.277344 39.894531 103.050781 C 39.894531 100.847656 39.816406 100.371094 39.21875 99.117188 C 38.292969 97.140625 36.515625 95.3125 34.617188 94.386719 C 33.339844 93.757812 32.664062 93.582031 30.964844 93.507812 C 29.714844 93.457031 28.4375 93.535156 27.738281 93.734375 Z M 34.316406 95.109375 C 40.292969 98.042969 40.992188 106.304688 35.566406 110.3125 C 33.914062 111.539062 32.140625 112.015625 29.738281 111.890625 C 22.910156 111.488281 19.183594 103.75 23.085938 98.015625 C 24.109375 96.488281 25.285156 95.535156 27.160156 94.761719 C 28.386719 94.257812 28.960938 94.160156 30.636719 94.210938 C 32.3125 94.285156 32.914062 94.410156 34.316406 95.109375 Z M 34.316406 95.109375 "/>
<path style=" stroke:none;fill-rule:nonzero;fill:rgb(0%,0%,0%);fill-opacity:1;" d="M 27.886719 99.492188 C 25.335938 100.945312 25.0625 104.351562 27.335938 106.355469 C 30.113281 108.785156 34.265625 106.804688 34.265625 103.023438 C 34.265625 99.792969 30.789062 97.839844 27.886719 99.492188 Z M 31.789062 100.042969 C 34.089844 101.246094 34.066406 104.851562 31.789062 106.128906 C 28.335938 108.082031 24.910156 103.925781 27.4375 100.894531 C 27.8125 100.46875 28.335938 100.019531 28.613281 99.917969 C 29.464844 99.570312 30.988281 99.644531 31.789062 100.042969 Z M 31.789062 100.042969 "/>
<path style=" stroke:none;fill-rule:nonzero;fill:rgb(0%,0%,0%);fill-opacity:1;" d="M 29.589844 101.421875 C 27.886719 102.097656 28.386719 104.675781 30.214844 104.675781 C 31.164062 104.675781 31.714844 104.203125 31.914062 103.300781 C 32.164062 101.996094 30.839844 100.921875 29.589844 101.421875 Z M 31.039062 102.574219 C 31.265625 102.847656 31.289062 103.074219 31.089844 103.375 C 30.488281 104.351562 29.039062 103.75 29.386719 102.675781 C 29.589844 102.074219 30.5625 101.996094 31.039062 102.574219 Z M 31.039062 102.574219 "/>
<path style=" stroke:none;fill-rule:nonzero;fill:rgb(0%,0%,0%);fill-opacity:1;" d="M 47.144531 104.425781 C 46.71875 104.550781 46.046875 105.003906 45.644531 105.429688 C 44.746094 106.378906 44.644531 107.90625 45.371094 109.007812 C 46.371094 110.488281 51.398438 112.316406 56.824219 113.140625 C 60.800781 113.742188 73.082031 113.742188 76.535156 113.117188 C 80.335938 112.441406 84.863281 110.710938 86.136719 109.460938 C 86.789062 108.785156 86.914062 108.484375 86.914062 107.433594 C 86.914062 106.429688 86.789062 106.078125 86.214844 105.480469 C 85.8125 105.054688 85.011719 104.601562 84.4375 104.425781 C 83.4375 104.152344 83.261719 104.175781 82.085938 104.777344 C 78.132812 106.78125 67.753906 107.90625 59.851562 107.207031 C 55.625 106.832031 52.046875 105.953125 50.523438 104.902344 C 49.722656 104.375 48.121094 104.152344 47.144531 104.425781 Z M 47.144531 104.425781 "/>
</g>
</svg>
